<svg version="1.1" xmlns="http://www.w3.org/2000/svg" xmlns:xlink="http://www.w3.org/1999/xlink" width="925.76514" height="656.22122" viewBox="0,0,925.76514,656.22122"><g transform="translate(246.5173,13.60846)"><g data-paper-data="{&quot;isPaintingLayer&quot;:true}" fill="#834f88" fill-rule="nonzero" stroke="none" stroke-width="0" stroke-linecap="butt" stroke-linejoin="miter" stroke-miterlimit="10" stroke-dasharray="" stroke-dashoffset="0" style="mix-blend-mode: normal"><path d="M618.58835,358.11526v-2.5522h59.00468v2.5522z"/><path d="M-246.5173,484.4208v-261.67765h186.02242v261.67765z"/><path d="M-105.83307,464.55792v-186.91265h585.09226v186.91265z"/><path d="M346.68414,585.56323c0,0 6.25088,-398.68767 4,-395.80173c-10.3495,13.26943 180.07058,-8.5 180.07058,-8.5v404.30173z"/><path d="M499.07747,642.61277c0,0 -79.04724,-399.60356 5,-484.79103c8.62618,-8.74321 18.52379,-52.1191 -7.79671,-64.58751c-32.87587,-15.57379 2.79671,-44.9885 2.79671,-44.9885h180.01687v594.36704z"/><path d="M447.23841,70.73657c-12.59761,-32.88338 9.5,-84.34465 9.5,-84.34465h111.40327v108.84465c0,0 -105.34972,16.09924 -120.90327,-24.5z"/><path d="M511.83776,168.65009v-182.25854h167.41008v182.25854z"/><path d="M-87.08157,288.21741l26.51809,-65.37172l42.38216,23.66538l117.73097,34.07212l-66.6,7.63422z"/><path d="M233.27524,319.3527l-65,-38.28894c0,0 80.59778,-15.07618 125.71799,-39.8359c45.12021,-24.75973 59.36963,-56.6641 59.36963,-56.6641c0,0 89.79632,20.85896 125.51227,-5.99388c29.74129,-22.36082 26.41313,-11.48302 26.98406,-11.01306c27.10671,22.31322 -103.49632,151.79588 -103.49632,151.79588z"/></g></g></svg>