<svg version="1.1" xmlns="http://www.w3.org/2000/svg" xmlns:xlink="http://www.w3.org/1999/xlink" width="818.70881" height="350.24909" viewBox="0,0,818.70881,350.24909"><g transform="translate(141.11578,-148.789)"><g data-paper-data="{&quot;isPaintingLayer&quot;:true}" fill="#834f88" fill-rule="nonzero" stroke="none" stroke-width="0" stroke-linecap="butt" stroke-linejoin="miter" stroke-miterlimit="10" stroke-dasharray="" stroke-dashoffset="0" style="mix-blend-mode: normal"><path d="M-141.11578,459.00307v-241.25992h344.26908v241.25992z"/><path d="M144.29877,480.14959v-291.85385h273.40336v291.85385z"/><path d="M367.68614,499.03809v-347.40221c0,0 51.382,-6.40548 118.91014,0c46.19883,4.38226 0,347.40221 0,347.40221z"/><path d="M31.04542,221.59199l61.09622,-13.46804c0,0 15.55819,-4.43781 16.41979,-4.80032c3.42533,-1.44115 25.27298,-12.81634 33.18024,-14.59158c6.6588,-1.49495 2.55869,-0.44499 2.55869,-0.44499l6.42857,41.59065z"/><path d="M295.34926,216.27857l-150.57143,-28.0377c0,0 110.85183,-10.57683 151.99838,-17.18627c15.76152,-2.5318 35.65639,-11.23458 50.46135,-15.58493c12.0429,-3.53874 20.76624,-3.08594 20.76624,-3.08594l1.71429,44.32342z"/><path d="M421.15538,479.42079v-261.67765h186.02242v261.67765z"/><path d="M618.58835,358.11525v-2.5522h59.00468v2.5522z"/><path d="M470.36696,278.56406l28,-114.85013l4.33739,6.47221c0,0 -0.59198,-0.63196 -0.04781,-0.02448c2.43895,2.72265 7.08149,7.6178 8.14871,8.40872c10.28562,7.62274 48.02257,31.40393 69.50662,39.50332c28.45356,10.72688 -40.5,60.49037 -40.5,60.49037z"/></g></g></svg>