<svg version="1.1" xmlns="http://www.w3.org/2000/svg" xmlns:xlink="http://www.w3.org/1999/xlink" width="819.70881" height="352.24909" viewBox="0,0,819.70881,352.24909"><g transform="translate(142.11578,-147.789)"><g data-paper-data="{&quot;isPaintingLayer&quot;:true}" fill-rule="nonzero" stroke-linecap="butt" stroke-linejoin="miter" stroke-miterlimit="10" stroke-dasharray="" stroke-dashoffset="0" style="mix-blend-mode: normal"><path d="M-141.11578,459.00307v-241.25992h344.26908v241.25992z" fill="#834f88" stroke="#000000" stroke-width="2"/><path d="M31.04542,221.59199l61.09622,-13.46804c0,0 15.55819,-4.43781 16.41979,-4.80032c3.42533,-1.44115 25.27298,-12.81634 33.18024,-14.59158c6.6588,-1.49495 2.55869,-0.44499 2.55869,-0.44499l6.42857,41.59065z" fill="#834f88" stroke="#000000" stroke-width="2"/><path d="M144.29877,480.14959v-291.85385h273.40336v291.85385z" fill="#834f88" stroke="none" stroke-width="0"/><path d="M367.68614,499.03809v-347.40221c0,0 51.382,-6.40548 118.91014,0c46.19883,4.38226 0,347.40221 0,347.40221z" fill="#834f88" stroke="#000000" stroke-width="2"/><path d="M295.34926,216.27857l-150.57143,-28.0377c0,0 110.85183,-10.57683 151.99838,-17.18627c15.76152,-2.5318 35.65639,-11.23458 50.46135,-15.58493c12.0429,-3.53874 20.76624,-3.08594 20.76624,-3.08594l1.71429,44.32342z" fill="#834f88" stroke="#000000" stroke-width="2"/><path d="M421.15538,479.47078v-261.67765h186.02242v261.67765z" fill="#834f88" stroke="#000000" stroke-width="2"/><path d="M618.58835,358.11525v-2.5522h59.00468v2.5522z" fill="#834f88" stroke="none" stroke-width="0"/><path d="M470.36696,278.56406l28,-114.85013l4.33739,6.47221c0,0 -0.59198,-0.63196 -0.04781,-0.02448c2.43895,2.72265 7.08149,7.6178 8.14871,8.40872c10.28562,7.62274 48.02257,31.40393 69.50662,39.50332c28.45356,10.72688 -40.5,60.49037 -40.5,60.49037z" fill="#834f88" stroke="#000000" stroke-width="2"/><path d="M279.53465,307.18831v-102.8866h269.33028v102.8866z" fill="#834f88" stroke="none" stroke-width="0"/><path d="M349.52954,230.39832v-64.29163h148.13913v64.29163z" fill="#834f88" stroke="none" stroke-width="0"/><path d="M358.17889,165.05682v-11.24854h43.09683v11.24854z" fill="#834f88" stroke="none" stroke-width="0"/><path d="M367.97818,187.10396v-24.74678h14.04898v24.74678z" fill="#834f88" stroke="none" stroke-width="0"/><path d="M318.5818,240.59699v-37.29515h86.99364v37.29515z" fill="#834f88" stroke="none" stroke-width="0"/><path d="M356.17905,202.20198v-12.2984h2.99979v12.2984z" fill="#834f88" stroke="none" stroke-width="0"/><path d="M318.03183,236.5975v-58.24242h66.99509v58.24242z" fill="#834f88" stroke="none" stroke-width="0"/><path d="M505.81808,289.04066v-68.09113h131.4404v68.09113z" fill="#834f88" stroke="none" stroke-width="0"/><path d="M321.6722,467.15518v-167.72816h150.23901v167.72816z" fill="#834f88" stroke="none" stroke-width="0"/><path d="M151.7741,244.03383v-55.09282h139.23981v55.09282z" fill="#834f88" stroke="none" stroke-width="0"/><path d="M56.73107,239.78439v-17.94766h129.19055v17.94766z" fill="#834f88" stroke="none" stroke-width="0"/></g></g></svg>